<svg xmlns="http://www.w3.org/2000/svg" xmlns:xlink="http://www.w3.org/1999/xlink" viewBox="0 0 26 26" version="1.1"
	id="svg_icon.primary" x="376" y="298" width="60" height="60">
	<style>
    g, path { fill: #333; }
    @media (prefers-color-scheme: dark) { g, path { fill: #ccc; }}
  </style>
	<g id="surface1">
		<path style=" "
			d="M 20.316406 2.953125 C 17.441406 2.953125 15.773438 4.871094 15.773438 7.308594 C 15.773438 9.234375 17.175781 10.910156 19.179688 10.910156 C 20.679688 10.910156 21.335938 10.011719 21.199219 9.738281 C 21.058594 9.460938 20.578125 9.773438 19.496094 9.773438 C 17.941406 9.773438 17.476563 8.542969 17.476563 7.488281 C 17.476563 6.382813 18.054688 5.226563 20.320313 5.226563 C 22.613281 5.226563 23.726563 7.722656 23.726563 9.773438 C 23.726563 12.542969 22.484375 13.765625 20.710938 14.160156 C 20.535156 14.019531 20.320313 13.925781 20.082031 13.90625 C 20.050781 13.902344 20.019531 13.902344 19.988281 13.902344 C 19.632813 13.902344 19.332031 14.070313 19.140625 14.3125 C 18.964844 14.3125 18.789063 14.285156 18.617188 14.257813 C 18.46875 14.085938 18.28125 13.9375 18.035156 13.867188 C 17.921875 13.832031 17.800781 13.816406 17.679688 13.816406 C 17.59375 13.816406 17.515625 13.835938 17.4375 13.851563 C 17.308594 13.785156 17.175781 13.722656 17.046875 13.648438 C 17.046875 13.566406 17.046875 13.488281 17.03125 13.40625 C 16.964844 13.046875 16.769531 12.710938 16.472656 12.464844 C 16.179688 12.222656 15.816406 12.085938 15.453125 12.085938 C 15.285156 12.085938 15.125 12.121094 14.972656 12.175781 C 14.894531 12.117188 14.8125 12.058594 14.730469 11.996094 C 14.976563 11.207031 14.550781 10.320313 13.675781 9.898438 C 13.386719 9.761719 13.074219 9.6875 12.765625 9.6875 C 12.265625 9.6875 11.820313 9.878906 11.515625 10.207031 C 11.410156 10.171875 11.308594 10.136719 11.203125 10.105469 C 10.964844 9.292969 10.148438 8.691406 9.175781 8.691406 C 8.234375 8.691406 7.441406 9.253906 7.175781 10.023438 C 7.046875 10.058594 6.917969 10.085938 6.796875 10.125 C 6.480469 9.953125 6.121094 9.855469 5.738281 9.855469 C 5.328125 9.855469 4.914063 9.960938 4.539063 10.160156 C 3.488281 10.722656 3.003906 11.894531 3.359375 12.890625 C 3.355469 12.894531 3.351563 12.898438 3.351563 12.902344 C 2.519531 12.972656 1.746094 13.558594 1.390625 14.414063 C 1.164063 14.96875 1.128906 15.574219 1.296875 16.117188 C 1.378906 16.390625 1.519531 16.636719 1.691406 16.847656 C 1.65625 16.96875 1.632813 17.089844 1.601563 17.214844 C 0.671875 17.484375 0 18.445313 0 19.632813 C 0 20.546875 0.398438 21.324219 1.007813 21.761719 C 0.996094 22.085938 1 22.273438 1 22.273438 L 6.679688 22.273438 C 6.679688 22.273438 8.816406 22.109375 8.816406 19.847656 C 8.816406 19.316406 8.640625 18.835938 8.359375 18.449219 C 9.066406 18.261719 9.679688 17.71875 9.960938 16.964844 C 10.15625 16.4375 10.15625 15.894531 10.011719 15.414063 C 10.089844 15.421875 10.167969 15.433594 10.25 15.433594 C 10.828125 15.433594 11.355469 15.21875 11.734375 14.867188 C 11.90625 14.957031 12.078125 15.050781 12.246094 15.148438 C 12.375 15.445313 12.597656 15.714844 12.910156 15.917969 C 13.207031 16.113281 13.542969 16.21875 13.878906 16.21875 C 14.226563 16.441406 14.59375 16.660156 14.988281 16.859375 C 15.113281 17.175781 15.378906 17.445313 15.753906 17.550781 C 15.871094 17.585938 15.988281 17.601563 16.109375 17.601563 C 16.296875 17.601563 16.464844 17.550781 16.613281 17.476563 C 16.84375 17.535156 17.082031 17.582031 17.332031 17.621094 C 17.511719 17.855469 17.785156 18.023438 18.121094 18.050781 C 18.152344 18.050781 18.183594 18.054688 18.214844 18.054688 C 18.539063 18.054688 18.8125 17.917969 19.007813 17.710938 C 19.328125 17.703125 19.636719 17.683594 19.929688 17.648438 C 20.046875 17.6875 20.171875 17.71875 20.304688 17.71875 C 20.410156 17.71875 20.519531 17.703125 20.625 17.671875 C 20.789063 17.625 20.929688 17.539063 21.050781 17.433594 C 24.890625 16.433594 26 12.988281 26 10.195313 C 26 5.308594 23.269531 2.953125 20.316406 2.953125 Z M 9.167969 9.71875 C 9.773438 9.71875 10.265625 10.109375 10.265625 10.597656 C 10.265625 11.082031 9.773438 11.476563 9.167969 11.476563 C 8.558594 11.476563 8.066406 11.082031 8.066406 10.597656 C 8.066406 10.109375 8.558594 9.71875 9.167969 9.71875 Z M 2.074219 21.121094 C 1.445313 21.101563 0.960938 20.414063 0.988281 19.589844 C 1.019531 18.761719 1.550781 18.113281 2.179688 18.132813 C 2.808594 18.15625 3.292969 18.84375 3.265625 19.667969 C 3.234375 20.492188 2.703125 21.144531 2.074219 21.121094 Z M 4.4375 15.640625 C 4.179688 16.363281 3.488281 16.777344 2.898438 16.566406 C 2.304688 16.355469 2.035156 15.597656 2.289063 14.875 C 2.546875 14.15625 3.238281 13.742188 3.828125 13.953125 C 4.421875 14.164063 4.691406 14.917969 4.4375 15.640625 Z M 4.503906 12.949219 C 4.105469 12.445313 4.246094 11.667969 4.816406 11.214844 C 5.390625 10.761719 6.175781 10.800781 6.578125 11.304688 C 6.976563 11.804688 6.835938 12.582031 6.265625 13.035156 C 5.691406 13.492188 4.902344 13.449219 4.503906 12.949219 Z M 6.644531 21.144531 C 6.019531 21.121094 5.527344 20.523438 5.554688 19.808594 C 5.578125 19.089844 6.109375 18.527344 6.734375 18.550781 C 7.363281 18.574219 7.851563 19.171875 7.828125 19.886719 C 7.804688 20.601563 7.273438 21.164063 6.644531 21.144531 Z M 9.042969 16.566406 C 8.828125 17.25 8.171875 17.652344 7.574219 17.464844 C 6.976563 17.277344 6.664063 16.574219 6.878906 15.890625 C 7.089844 15.203125 7.746094 14.800781 8.347656 14.988281 C 8.945313 15.175781 9.257813 15.882813 9.042969 16.566406 Z M 10.242188 14.417969 C 9.636719 14.417969 9.144531 14.023438 9.144531 13.539063 C 9.144531 13.054688 9.636719 12.660156 10.242188 12.660156 C 10.851563 12.660156 11.34375 13.054688 11.34375 13.539063 C 11.34375 14.023438 10.851563 14.417969 10.242188 14.417969 Z M 12.195313 11.003906 C 12.359375 10.679688 12.84375 10.59375 13.273438 10.8125 C 13.703125 11.03125 13.921875 11.472656 13.753906 11.796875 C 13.589844 12.121094 13.105469 12.207031 12.675781 11.988281 C 12.246094 11.769531 12.027344 11.328125 12.195313 11.003906 Z M 14.484375 15.140625 C 14.316406 15.46875 13.835938 15.554688 13.402344 15.335938 C 12.972656 15.117188 12.757813 14.675781 12.921875 14.351563 C 13.085938 14.023438 13.570313 13.9375 14 14.15625 C 14.433594 14.375 14.648438 14.816406 14.484375 15.140625 Z M 15.152344 14.035156 C 14.824219 13.765625 14.746094 13.320313 14.976563 13.046875 C 15.203125 12.773438 15.652344 12.769531 15.980469 13.039063 C 16.304688 13.3125 16.382813 13.753906 16.15625 14.027344 C 15.925781 14.304688 15.476563 14.308594 15.152344 14.035156 Z M 16.65625 16.753906 C 16.570313 17.035156 16.214844 17.175781 15.867188 17.066406 C 15.523438 16.957031 15.3125 16.640625 15.402344 16.359375 C 15.488281 16.078125 15.84375 15.9375 16.1875 16.046875 C 16.535156 16.15625 16.746094 16.472656 16.65625 16.753906 Z M 17.128906 14.660156 C 17.214844 14.382813 17.566406 14.242188 17.914063 14.351563 C 18.261719 14.460938 18.472656 14.777344 18.382813 15.058594 C 18.296875 15.339844 17.941406 15.476563 17.59375 15.367188 C 17.246094 15.257813 17.039063 14.941406 17.128906 14.660156 Z M 18.175781 17.566406 C 17.851563 17.550781 17.597656 17.324219 17.613281 17.0625 C 17.625 16.800781 17.898438 16.601563 18.222656 16.617188 C 18.546875 16.632813 18.796875 16.859375 18.78125 17.121094 C 18.769531 17.382813 18.496094 17.582031 18.175781 17.566406 Z M 19.4375 14.855469 C 19.441406 14.601563 19.699219 14.402344 20.011719 14.410156 C 20.320313 14.417969 20.570313 14.628906 20.566406 14.878906 C 20.558594 15.132813 20.304688 15.328125 19.992188 15.324219 C 19.679688 15.316406 19.433594 15.105469 19.4375 14.855469 Z M 20.453125 17.191406 C 20.148438 17.261719 19.859375 17.117188 19.804688 16.871094 C 19.746094 16.625 19.949219 16.371094 20.253906 16.304688 C 20.558594 16.234375 20.847656 16.378906 20.902344 16.625 C 20.957031 16.871094 20.757813 17.125 20.453125 17.191406 Z M 21.480469 14.820313 C 21.421875 14.601563 21.585938 14.367188 21.851563 14.296875 C 22.113281 14.222656 22.378906 14.335938 22.4375 14.550781 C 22.496094 14.765625 22.335938 15 22.070313 15.074219 C 21.804688 15.148438 21.542969 15.035156 21.480469 14.820313 Z M 22.464844 16.277344 C 22.199219 16.351563 21.9375 16.238281 21.878906 16.023438 C 21.816406 15.808594 21.980469 15.574219 22.246094 15.5 C 22.507813 15.425781 22.773438 15.539063 22.832031 15.753906 C 22.894531 15.96875 22.726563 16.203125 22.464844 16.277344 Z M 23.03125 13.984375 C 22.941406 13.867188 22.988281 13.6875 23.132813 13.578125 C 23.273438 13.472656 23.460938 13.480469 23.546875 13.597656 C 23.636719 13.714844 23.589844 13.894531 23.445313 14.003906 C 23.304688 14.109375 23.117188 14.101563 23.03125 13.984375 Z M 23.859375 15.039063 C 23.71875 15.148438 23.53125 15.140625 23.445313 15.023438 C 23.359375 14.90625 23.402344 14.722656 23.546875 14.617188 C 23.6875 14.511719 23.875 14.519531 23.960938 14.636719 C 24.050781 14.753906 24.003906 14.933594 23.859375 15.039063 Z M 24.238281 13.867188 C 24.128906 13.773438 24.136719 13.585938 24.253906 13.453125 C 24.371094 13.316406 24.554688 13.289063 24.664063 13.382813 C 24.773438 13.480469 24.765625 13.664063 24.648438 13.800781 C 24.53125 13.933594 24.347656 13.964844 24.238281 13.867188 Z "></path>
	</g>
</svg>
